<svg width="48" height="48" viewBox="0 0 48 48" fill="none" xmlns="http://www.w3.org/2000/svg">
<circle cx="24" cy="24" r="23" stroke="#111A40" stroke-width="2"/>
<path d="M24 23C23.337 23 22.7011 22.7366 22.2322 22.2678C21.7634 21.7989 21.5 21.163 21.5 20.5C21.5 19.837 21.7634 19.2011 22.2322 18.7322C22.7011 18.2634 23.337 18 24 18C24.663 18 25.2989 18.2634 25.7678 18.7322C26.2366 19.2011 26.5 19.837 26.5 20.5C26.5 20.8283 26.4353 21.1534 26.3097 21.4567C26.1841 21.76 25.9999 22.0356 25.7678 22.2678C25.5356 22.4999 25.26 22.6841 24.9567 22.8097C24.6534 22.9353 24.3283 23 24 23ZM24 13.5C22.1435 13.5 20.363 14.2375 19.0503 15.5503C17.7375 16.863 17 18.6435 17 20.5C17 25.75 24 33.5 24 33.5C24 33.5 31 25.75 31 20.5C31 18.6435 30.2625 16.863 28.9497 15.5503C27.637 14.2375 25.8565 13.5 24 13.5Z" fill="#111A40"/>
</svg>

