<svg width="48" height="48" viewBox="0 0 48 48" fill="none" xmlns="http://www.w3.org/2000/svg">
<circle cx="24" cy="24" r="23" stroke="#111A40" stroke-width="2"/>
<g clip-path="url(#clip0_94_2295)">
<path d="M16 31.5C15.45 31.5 14.9793 31.3043 14.588 30.913C14.196 30.521 14 30.05 14 29.5V17.5C14 16.95 14.196 16.4793 14.588 16.088C14.9793 15.696 15.45 15.5 16 15.5H32C32.55 15.5 33.021 15.696 33.413 16.088C33.8043 16.4793 34 16.95 34 17.5V29.5C34 30.05 33.8043 30.521 33.413 30.913C33.021 31.3043 32.55 31.5 32 31.5H16ZM32 19.5L24.525 24.175C24.4417 24.225 24.354 24.2623 24.262 24.287C24.1707 24.3123 24.0833 24.325 24 24.325C23.9167 24.325 23.8293 24.3123 23.738 24.287C23.646 24.2623 23.5583 24.225 23.475 24.175L16 19.5V29.5H32V19.5ZM24 22.5L32 17.5H16L24 22.5ZM16 19.75V18.275V18.3V18.287V19.75Z" fill="#111A40"/>
</g>
<defs>
<clipPath id="clip0_94_2295">
<rect width="24" height="24" fill="white" transform="translate(12 11.5)"/>
</clipPath>
</defs>
</svg>

