<svg width="48" height="48" viewBox="0 0 48 48" fill="none" xmlns="http://www.w3.org/2000/svg">
<circle cx="24" cy="24" r="23" stroke="#111A40" stroke-width="2"/>
<path d="M31.23 26.7598L28.69 26.4698C28.3914 26.4347 28.0886 26.4678 27.8046 26.5665C27.5206 26.6652 27.2626 26.827 27.05 27.0398L25.21 28.8798C22.3712 27.436 20.0638 25.1286 18.62 22.2898L20.47 20.4398C20.9 20.0098 21.11 19.4098 21.04 18.7998L20.75 16.2798C20.6933 15.7919 20.4592 15.342 20.0923 15.0156C19.7253 14.6892 19.2511 14.5092 18.76 14.5098H17.03C15.9 14.5098 14.96 15.4498 15.03 16.5798C15.56 25.1198 22.39 31.9398 30.92 32.4698C32.05 32.5398 32.99 31.5998 32.99 30.4698V28.7398C33 27.7298 32.24 26.8798 31.23 26.7598Z" fill="#111A40"/>
</svg>

